<?xml version="1.0" encoding="utf-8"?>
<!DOCTYPE svg PUBLIC "-//W3C//DTD SVG 1.1//EN" "http://www.w3.org/Graphics/SVG/1.1/DTD/svg11.dtd">
<svg version="1.1" id="图形" xmlns="http://www.w3.org/2000/svg" xmlns:xlink="http://www.w3.org/1999/xlink" x="0px" y="0px" width="1000px" height="1024px" viewBox="0 0 1000 1024" enable-background="new 0 0 1000 1024" xml:space="preserve">
  <path fill="#272636" d="M606.6875-56.6875l312.5 312.5c24.4063 24.4063 24.4063 63.9688 0 88.375l-312.5 312.5c-24.4063 24.4063-63.9688 24.4063-88.375 0-24.4063-24.4063-24.4063-63.9688 0-88.375l205.8125-205.8125h-599.125c-34.5313 0-62.5-27.9688-62.5-62.5s27.9688-62.5 62.5-62.5h599.125l-205.8125-205.8125c-12.1875-12.1875-18.3125-28.1875-18.3125-44.1875s6.0938-32 18.3125-44.1875c24.4063-24.4063 63.9688-24.4063 88.375 0z" transform="translate(0, 812) scale(1, -1)"/>
</svg>
